<svg xmlns="http://www.w3.org/2000/svg" xmlns:xlink="http://www.w3.org/1999/xlink" version="1.1" width="1000" height="1000" viewBox="0 0 1000 1000" xml:space="preserve">
<desc>Created with Fabric.js 3.5.0</desc>
<defs>
</defs>
<rect x="0" y="0" width="100%" height="100%" fill="#00aa45"/>
<g transform="matrix(1.2987 0 0 1.2987 502.5971 502.5971)" id="369819">
<path style="stroke: rgb(0,0,0); stroke-width: 5; stroke-dasharray: none; stroke-linecap: butt; stroke-dashoffset: 0; stroke-linejoin: miter; stroke-miterlimit: 4; is-custom-font: none; font-file-url: none; fill: rgb(255,255,255); fill-rule: nonzero; opacity: 1;" transform=" translate(-350.002, -280.0026)" d="m 528.33 457.08 l -7.3867 -29.113 l -70.547 -17.461 l -47.562 -26.492 l 10.148 -3.0703 l -2.4648 -19.93 l -33.57 -0.86719 l 35.824 -19.117 l -0.29297 -51.352 l -56.734 40.605 l 57.328 -71.953 l -9.8516 -74.648 l -83.609 110.18 l 73.758 -153.18 l -43.004 -110.48 l -98.555 273.98 l -6.9648 -8.2695 l -36.055 23.516 l -25.766 34.125 l 1.5234 7.4414 l -12.73 19.566 l -0.14453 10.438 l 8.0625 7.4766 l 13.82 4.7109 l -4.7422 -8.418 l 1.5234 -7.8008 l 16.391 -13.105 l 44.527 -17.488 l 29.047 23.375 l 35.75 18.727 l 27.164 9.1289 l -3.0039 14.641 l -12.504 13.273 l -24.82 2.2617 l -8.0586 5.3711 l -0.90625 8.0625 l 7.1328 -6.3672 l 16.387 -1.0938 l 10.129 5.1523 l 4.3125 5.8203 l 0.37109 -6.7969 l -2.5195 -4.9336 l 37.094 -16.598 l 68.711 9.4062 l 44.559 94 l 27.34 -16.488 l -35.707 -44.375 l 43.289 32.547 l 11.586 -30.152 l -44.781 -23.902 z m -336.48 -97.055 l 11.082 -16.219 l 4.9297 6.8086 z" stroke-linecap="round"/>
</g>
</svg>